<svg width="24" height="24" viewBox="0 0 24 24" fill="none" xmlns="http://www.w3.org/2000/svg">
<mask id="path-1-inside-1_147_85" fill="white">
<path d="M8.65786 18.5483V17.9865C8.65786 17.7755 8.82928 17.6041 9.04016 17.6041H9.60094C9.81418 17.6041 9.98359 17.7755 9.98359 17.9865V18.5483C9.98359 18.7592 9.81418 18.9315 9.60094 18.9315H9.04016C8.82928 18.9315 8.65786 18.7592 8.65786 18.5483ZM4.13618 11.7945V11.2335C4.13618 11.0224 4.30745 10.8499 4.51836 10.8499H5.08107C5.29219 10.8499 5.46363 11.0224 5.46363 11.2335V11.7945C5.46363 12.0054 5.29219 12.177 5.08107 12.177H4.51836C4.30745 12.177 4.13618 12.0054 4.13618 11.7945ZM13.1779 18.5483V17.9865C13.1779 17.7755 13.3495 17.6041 13.5603 17.6041H14.123C14.3341 17.6041 14.5054 17.7755 14.5054 17.9865V18.5483C14.5054 18.7592 14.3341 18.9315 14.123 18.9315H13.5603C13.3495 18.9315 13.1779 18.7592 13.1779 18.5483ZM8.65786 15.1717V14.61C8.65786 14.3989 8.82928 14.2276 9.04016 14.2276H9.60094C9.81418 14.2276 9.98359 14.3989 9.98359 14.61V15.1717C9.98359 15.3829 9.81418 15.5552 9.60094 15.5552H9.04016C8.82928 15.5552 8.65786 15.3829 8.65786 15.1717ZM4.13618 18.5483V17.9865C4.13618 17.7755 4.30745 17.6041 4.51836 17.6041H5.08107C5.29219 17.6041 5.46363 17.7755 5.46363 17.9865V18.5483C5.46363 18.7592 5.29219 18.9315 5.08107 18.9315H4.51836C4.30745 18.9315 4.13618 18.7592 4.13618 18.5483ZM4.13618 15.1717V14.61C4.13618 14.3989 4.30745 14.2276 4.51836 14.2276H5.08107C5.29219 14.2276 5.46363 14.3989 5.46363 14.61V15.1717C5.46363 15.3829 5.29219 15.5552 5.08107 15.5552H4.51836C4.30745 15.5552 4.13618 15.3829 4.13618 15.1717ZM8.65786 11.7945V11.2335C8.65786 11.0224 8.82928 10.8499 9.04016 10.8499H9.60094C9.81418 10.8499 9.98359 11.0224 9.98359 11.2335V11.7945C9.98359 12.0054 9.81418 12.177 9.60094 12.177H9.04016C8.82928 12.177 8.65786 12.0054 8.65786 11.7945ZM17.6997 18.5483V17.9865C17.6997 17.7755 17.8713 17.6041 18.0822 17.6041H18.6432C18.8543 17.6041 19.0254 17.7755 19.0254 17.9865V18.5483C19.0254 18.7592 18.8543 18.9315 18.6432 18.9315H18.0822C17.8713 18.9315 17.6997 18.7592 17.6997 18.5483ZM17.6997 11.7945V11.2335C17.6997 11.0224 17.8713 10.8499 18.0822 10.8499H18.6432C18.8543 10.8499 19.0254 11.0224 19.0254 11.2335V11.7945C19.0254 12.0054 18.8543 12.177 18.6432 12.177H18.0822C17.8713 12.177 17.6997 12.0054 17.6997 11.7945ZM17.6997 15.1717V14.61C17.6997 14.3989 17.8713 14.2276 18.0822 14.2276H18.6432C18.8543 14.2276 19.0254 14.3989 19.0254 14.61V15.1717C19.0254 15.3829 18.8543 15.5552 18.6432 15.5552H18.0822C17.8713 15.5552 17.6997 15.3829 17.6997 15.1717ZM13.1779 15.1717V14.61C13.1779 14.3989 13.3495 14.2276 13.5603 14.2276H14.123C14.3341 14.2276 14.5054 14.3989 14.5054 14.61V15.1717C14.5054 15.3829 14.3341 15.5552 14.123 15.5552H13.5603C13.3495 15.5552 13.1779 15.3829 13.1779 15.1717ZM13.1779 11.7945V11.2335C13.1779 11.0224 13.3495 10.8499 13.5603 10.8499H14.123C14.3341 10.8499 14.5054 11.0224 14.5054 11.2335V11.7945C14.5054 12.0054 14.3341 12.177 14.123 12.177H13.5603C13.3495 12.177 13.1779 12.0054 13.1779 11.7945ZM22.2399 7.43647H0.923592V3.46294C0.923592 2.81545 1.45025 2.28789 2.09781 2.28789H4.21179V3.1743C4.21179 3.9085 4.80876 4.50557 5.54292 4.50557C6.27784 4.50557 6.87571 3.9085 6.87571 3.1743V2.28789H16.2877V3.1743C16.2877 3.9085 16.8845 4.50557 17.6187 4.50557C18.3536 4.50557 18.9514 3.9085 18.9514 3.1743V2.28789H21.0637C21.7124 2.28789 22.2399 2.81545 22.2399 3.46294V7.43647ZM22.2399 20.2455C22.2399 20.894 21.7124 21.4216 21.0637 21.4216H2.09781C1.45025 21.4216 0.923592 20.894 0.923592 20.2455V8.36011H22.2399V20.2455ZM20.4542 23.0765H2.70923C2.22406 23.0765 1.83093 22.7465 1.69928 22.3047C1.82918 22.3299 1.9616 22.3451 2.09781 22.3451H21.0637C21.2009 22.3451 21.3342 22.3299 21.4624 22.3047C21.3319 22.7465 20.9377 23.0765 20.4542 23.0765ZM5.13529 1.33197C5.13529 1.10648 5.31735 0.923639 5.54292 0.923639C5.76827 0.923639 5.95224 1.10648 5.95224 1.33197V3.1743C5.95224 3.39885 5.76827 3.58216 5.54292 3.58216C5.31735 3.58216 5.13529 3.39885 5.13529 3.1743V1.33197ZM17.2111 1.33197C17.2111 1.10648 17.3932 0.923639 17.6187 0.923639C17.8442 0.923639 18.0282 1.10648 18.0282 1.33197V3.1743C18.0282 3.39885 17.8442 3.58216 17.6187 3.58216C17.3932 3.58216 17.2111 3.39885 17.2111 3.1743V1.33197ZM21.0637 1.36449H18.9514V1.33197C18.9514 0.597773 18.3536 1.80523e-07 17.6187 1.80523e-07C16.8845 1.80523e-07 16.2877 0.597773 16.2877 1.33197V1.36449H6.87571V1.33197C6.87571 0.597773 6.27784 1.80523e-07 5.54292 1.80523e-07C4.80876 1.80523e-07 4.21179 0.597773 4.21179 1.33197V1.36449H2.09781C0.941593 1.36449 0 2.30603 0 3.46294V20.2455C0 20.8716 0.279825 21.4279 0.716055 21.8131V22.0069C0.716055 23.1063 1.60977 24 2.70923 24H20.4542C21.5524 24 22.4473 23.1063 22.4473 22.0069V21.8131C22.8818 21.4279 23.1634 20.8716 23.1634 20.2455V3.46294C23.1634 2.30603 22.2218 1.36449 21.0637 1.36449Z"/>
</mask>
<path d="M8.65786 18.5483V17.9865C8.65786 17.7755 8.82928 17.6041 9.04016 17.6041H9.60094C9.81418 17.6041 9.98359 17.7755 9.98359 17.9865V18.5483C9.98359 18.7592 9.81418 18.9315 9.60094 18.9315H9.04016C8.82928 18.9315 8.65786 18.7592 8.65786 18.5483ZM4.13618 11.7945V11.2335C4.13618 11.0224 4.30745 10.8499 4.51836 10.8499H5.08107C5.29219 10.8499 5.46363 11.0224 5.46363 11.2335V11.7945C5.46363 12.0054 5.29219 12.177 5.08107 12.177H4.51836C4.30745 12.177 4.13618 12.0054 4.13618 11.7945ZM13.1779 18.5483V17.9865C13.1779 17.7755 13.3495 17.6041 13.5603 17.6041H14.123C14.3341 17.6041 14.5054 17.7755 14.5054 17.9865V18.5483C14.5054 18.7592 14.3341 18.9315 14.123 18.9315H13.5603C13.3495 18.9315 13.1779 18.7592 13.1779 18.5483ZM8.65786 15.1717V14.61C8.65786 14.3989 8.82928 14.2276 9.04016 14.2276H9.60094C9.81418 14.2276 9.98359 14.3989 9.98359 14.61V15.1717C9.98359 15.3829 9.81418 15.5552 9.60094 15.5552H9.04016C8.82928 15.5552 8.65786 15.3829 8.65786 15.1717ZM4.13618 18.5483V17.9865C4.13618 17.7755 4.30745 17.6041 4.51836 17.6041H5.08107C5.29219 17.6041 5.46363 17.7755 5.46363 17.9865V18.5483C5.46363 18.7592 5.29219 18.9315 5.08107 18.9315H4.51836C4.30745 18.9315 4.13618 18.7592 4.13618 18.5483ZM4.13618 15.1717V14.61C4.13618 14.3989 4.30745 14.2276 4.51836 14.2276H5.08107C5.29219 14.2276 5.46363 14.3989 5.46363 14.61V15.1717C5.46363 15.3829 5.29219 15.5552 5.08107 15.5552H4.51836C4.30745 15.5552 4.13618 15.3829 4.13618 15.1717ZM8.65786 11.7945V11.2335C8.65786 11.0224 8.82928 10.8499 9.04016 10.8499H9.60094C9.81418 10.8499 9.98359 11.0224 9.98359 11.2335V11.7945C9.98359 12.0054 9.81418 12.177 9.60094 12.177H9.04016C8.82928 12.177 8.65786 12.0054 8.65786 11.7945ZM17.6997 18.5483V17.9865C17.6997 17.7755 17.8713 17.6041 18.0822 17.6041H18.6432C18.8543 17.6041 19.0254 17.7755 19.0254 17.9865V18.5483C19.0254 18.7592 18.8543 18.9315 18.6432 18.9315H18.0822C17.8713 18.9315 17.6997 18.7592 17.6997 18.5483ZM17.6997 11.7945V11.2335C17.6997 11.0224 17.8713 10.8499 18.0822 10.8499H18.6432C18.8543 10.8499 19.0254 11.0224 19.0254 11.2335V11.7945C19.0254 12.0054 18.8543 12.177 18.6432 12.177H18.0822C17.8713 12.177 17.6997 12.0054 17.6997 11.7945ZM17.6997 15.1717V14.61C17.6997 14.3989 17.8713 14.2276 18.0822 14.2276H18.6432C18.8543 14.2276 19.0254 14.3989 19.0254 14.61V15.1717C19.0254 15.3829 18.8543 15.5552 18.6432 15.5552H18.0822C17.8713 15.5552 17.6997 15.3829 17.6997 15.1717ZM13.1779 15.1717V14.61C13.1779 14.3989 13.3495 14.2276 13.5603 14.2276H14.123C14.3341 14.2276 14.5054 14.3989 14.5054 14.61V15.1717C14.5054 15.3829 14.3341 15.5552 14.123 15.5552H13.5603C13.3495 15.5552 13.1779 15.3829 13.1779 15.1717ZM13.1779 11.7945V11.2335C13.1779 11.0224 13.3495 10.8499 13.5603 10.8499H14.123C14.3341 10.8499 14.5054 11.0224 14.5054 11.2335V11.7945C14.5054 12.0054 14.3341 12.177 14.123 12.177H13.5603C13.3495 12.177 13.1779 12.0054 13.1779 11.7945ZM22.2399 7.43647H0.923592V3.46294C0.923592 2.81545 1.45025 2.28789 2.09781 2.28789H4.21179V3.1743C4.21179 3.9085 4.80876 4.50557 5.54292 4.50557C6.27784 4.50557 6.87571 3.9085 6.87571 3.1743V2.28789H16.2877V3.1743C16.2877 3.9085 16.8845 4.50557 17.6187 4.50557C18.3536 4.50557 18.9514 3.9085 18.9514 3.1743V2.28789H21.0637C21.7124 2.28789 22.2399 2.81545 22.2399 3.46294V7.43647ZM22.2399 20.2455C22.2399 20.894 21.7124 21.4216 21.0637 21.4216H2.09781C1.45025 21.4216 0.923592 20.894 0.923592 20.2455V8.36011H22.2399V20.2455ZM20.4542 23.0765H2.70923C2.22406 23.0765 1.83093 22.7465 1.69928 22.3047C1.82918 22.3299 1.9616 22.3451 2.09781 22.3451H21.0637C21.2009 22.3451 21.3342 22.3299 21.4624 22.3047C21.3319 22.7465 20.9377 23.0765 20.4542 23.0765ZM5.13529 1.33197C5.13529 1.10648 5.31735 0.923639 5.54292 0.923639C5.76827 0.923639 5.95224 1.10648 5.95224 1.33197V3.1743C5.95224 3.39885 5.76827 3.58216 5.54292 3.58216C5.31735 3.58216 5.13529 3.39885 5.13529 3.1743V1.33197ZM17.2111 1.33197C17.2111 1.10648 17.3932 0.923639 17.6187 0.923639C17.8442 0.923639 18.0282 1.10648 18.0282 1.33197V3.1743C18.0282 3.39885 17.8442 3.58216 17.6187 3.58216C17.3932 3.58216 17.2111 3.39885 17.2111 3.1743V1.33197ZM21.0637 1.36449H18.9514V1.33197C18.9514 0.597773 18.3536 1.80523e-07 17.6187 1.80523e-07C16.8845 1.80523e-07 16.2877 0.597773 16.2877 1.33197V1.36449H6.87571V1.33197C6.87571 0.597773 6.27784 1.80523e-07 5.54292 1.80523e-07C4.80876 1.80523e-07 4.21179 0.597773 4.21179 1.33197V1.36449H2.09781C0.941593 1.36449 0 2.30603 0 3.46294V20.2455C0 20.8716 0.279825 21.4279 0.716055 21.8131V22.0069C0.716055 23.1063 1.60977 24 2.70923 24H20.4542C21.5524 24 22.4473 23.1063 22.4473 22.0069V21.8131C22.8818 21.4279 23.1634 20.8716 23.1634 20.2455V3.46294C23.1634 2.30603 22.2218 1.36449 21.0637 1.36449Z" fill="#5F6368" stroke="#5F6368" stroke-width="2" mask="url(#path-1-inside-1_147_85)"/>
</svg>
