<svg width="28" height="18" viewBox="0 0 28 18" fill="none" xmlns="http://www.w3.org/2000/svg">
<path d="M1.10547 1.08002V16.92M1.10547 1.08002H26.8949M1.10547 1.08002L11.6631 11.3963C11.9887 11.7145 12.3833 11.9534 12.8161 12.0944V12.0944C13.1124 12.1909 13.4221 12.24 13.7337 12.24H14.2667C14.5783 12.24 14.888 12.1909 15.1843 12.0944V12.0944C15.6171 11.9534 16.0117 11.7145 16.3373 11.3963L26.8949 1.08002M1.10547 16.92H26.8949M1.10547 16.92L9.21073 9.00002M26.8949 16.92V1.08002M26.8949 16.92L18.7897 9.00002" stroke="black"/>
<rect x="0.5" y="0.5" width="27" height="17" rx="1.5" stroke="white"/>
</svg>
