<svg width="22" height="22" viewBox="0 0 22 22" fill="none" xmlns="http://www.w3.org/2000/svg">
<circle cx="11" cy="11" r="10.25" stroke="#5F6368" stroke-width="1.5"/>
<path d="M10.9048 5.32324L11.5713 5.77734C11.7374 5.88965 11.8594 6.00684 11.9376 6.12891C12.0206 6.25098 12.0621 6.38281 12.0621 6.52441C12.0621 6.6709 12.0303 6.79785 11.9669 6.90527C11.9034 7.00781 11.7911 7.11523 11.6299 7.22754L10.9195 7.71094L10.2603 7.27148C10.0845 7.15918 9.95269 7.04199 9.8648 6.91992C9.78179 6.79785 9.74029 6.6709 9.74029 6.53906C9.74029 6.39258 9.77447 6.26318 9.84283 6.15088C9.91119 6.03857 10.0357 5.91895 10.2164 5.79199L10.9048 5.32324ZM11.9302 9C11.9009 10.0547 11.8765 10.9751 11.857 11.7612C11.8423 12.5474 11.835 13.1919 11.835 13.6948V14.5518C11.835 15.123 11.8912 15.4893 12.0035 15.6504C12.1207 15.8066 12.3404 15.8848 12.6627 15.8848C12.6871 15.8848 12.7237 15.8823 12.7725 15.8774C12.8262 15.8726 12.8702 15.8701 12.9044 15.8701V16.5C12.4551 16.4707 12.0621 16.4487 11.7252 16.4341C11.3882 16.4194 11.1099 16.4121 10.8902 16.4121C10.7046 16.4121 10.4532 16.4194 10.1358 16.4341C9.8233 16.4487 9.44976 16.4707 9.01519 16.5V15.8701H9.169C9.794 15.8701 10.1089 15.2939 10.1138 14.1416C10.1138 13.9561 10.1138 13.812 10.1138 13.7095L10.1285 12.1494V11.5049C10.1285 10.958 10.0845 10.6064 9.99664 10.4502C9.90875 10.2939 9.73785 10.2158 9.48394 10.2158C9.44976 10.2158 9.37164 10.2207 9.24957 10.2305C9.19586 10.2354 9.15435 10.2402 9.12505 10.2451L9.01519 9.65918C9.53277 9.59082 10.0308 9.50293 10.5093 9.39551C10.9878 9.28809 11.4615 9.15625 11.9302 9Z" fill="#5F6368"/>
</svg>
