<svg width="23" height="17" viewBox="0 0 23 17" fill="none" xmlns="http://www.w3.org/2000/svg">
<path d="M16 15.5H1V15C1 12.2386 3.23858 10 6 10H11C13.7614 10 16 12.2386 16 15V15.5Z" stroke="#5F6368" stroke-width="1.8"/>
<circle cx="9" cy="4" r="3" stroke="#5F6368" stroke-width="2"/>
<path d="M17.7488 4C17.7488 5.24586 16.9894 6.31433 15.9082 6.76776C16.2767 6.08106 16.5592 5.16453 16.3716 4.01513C16.5886 2.8458 16.1712 1.86458 15.7458 1.16963C16.9126 1.58061 17.7488 2.69264 17.7488 4ZM14.9489 0.0149398C14.9493 0.0151265 14.9525 0.0209053 14.957 0.0317164C14.9507 0.0201587 14.9484 0.0147532 14.9489 0.0149398Z" stroke="#5F6368" stroke-width="2"/>
<path d="M21.3672 14.4V14.4266L21.3686 14.4531C21.3844 14.7492 21.4017 15.0026 21.4161 15.2129C21.4173 15.2308 21.4185 15.2484 21.4197 15.2658C21.4223 15.3035 21.4247 15.3393 21.427 15.3733C21.1761 15.3723 20.8534 15.3753 20.4669 15.4001C20.3425 15.4003 20.224 15.4019 20.1222 15.4032C20.0823 15.4037 20.0449 15.4042 20.0107 15.4046C20.0006 15.1729 20.0001 14.8565 20.0001 14.4C20.0001 13.3748 19.8101 12.5286 19.4617 11.7665C19.5211 11.8111 19.5802 11.8569 19.6388 11.9036C20.1731 12.3294 20.6225 12.7999 20.9306 13.2593C21.2446 13.7278 21.3672 14.1165 21.3672 14.4ZM19.6559 15.3954C19.656 15.3953 19.6588 15.3957 19.6639 15.3968C19.6583 15.396 19.6558 15.3954 19.6559 15.3954Z" stroke="#5F6368" stroke-width="2"/>
</svg>
