<svg width="31" height="31" viewBox="0 0 31 31" fill="none" xmlns="http://www.w3.org/2000/svg">
<path d="M6.31811 24.4327L6.27198 24.376C7.16358 22.8706 8.44089 21.6022 9.99018 20.6967C11.7291 19.6805 13.7358 19.1656 15.7724 19.2159C17.8089 19.2662 19.7852 19.8795 21.4674 20.9799C22.9073 21.9217 23.654 23.0446 24.4134 24.6632C23.8242 25.3722 23.13 25.9883 22.3543 26.4898C21.8257 26.8315 21.263 27.1175 20.6754 27.3432L20.3033 27.486C19.2725 27.8819 18.1788 28.1462 17.0791 28.2684C16.0432 28.3835 14.9839 28.3777 13.9517 28.2487L12.5914 28.0787L11.5095 27.791C10.4459 27.5081 9.43637 27.0517 8.52149 26.4401C7.69088 25.8848 6.94817 25.2082 6.31811 24.4327Z" fill="white" stroke="white" stroke-width="2"/>
<path d="M21.0875 12.9813C21.0875 16.0672 18.5859 18.5688 15.5 18.5688C12.4141 18.5688 9.91248 16.0672 9.91248 12.9813C9.91248 9.89541 12.4141 7.3938 15.5 7.3938C18.5859 7.3938 21.0875 9.89541 21.0875 12.9813Z" fill="white" stroke="white" stroke-width="2"/>
</svg>
