<svg width="76" height="95" viewBox="0 0 76 95" fill="none" xmlns="http://www.w3.org/2000/svg">
<path d="M21.5542 45.4009L31.253 56.7358L54.4458 35.3255M32.2764 88.9765L36.5987 91.2598C37.4755 91.7229 38.5245 91.7229 39.4013 91.2598L43.7236 88.9765C53.4596 83.8334 61.433 75.8934 66.6168 66.179V66.179C70.8077 58.3253 73 49.5603 73 40.6584V23.2806C73 22.168 72.3842 21.1467 71.4002 20.6274L39.4002 3.739C38.524 3.27656 37.476 3.27656 36.5998 3.739L4.59976 20.6274C3.61577 21.1467 3 22.168 3 23.2806V40.6584C3 49.5603 5.19229 58.3253 9.38322 66.179V66.179C14.567 75.8934 22.5404 83.8334 32.2764 88.9765Z" stroke="black" stroke-width="5" stroke-linecap="round"/>
</svg>
