<svg width="20" height="14" viewBox="0 0 20 14" fill="none" xmlns="http://www.w3.org/2000/svg">
<path d="M1.71045 1.72V12.28M1.71045 1.72H18.2894M1.71045 1.72L8.50438 8.60452C8.70909 8.81196 8.95953 8.96858 9.23564 9.06184V9.06184C9.42808 9.12685 9.62984 9.16 9.83297 9.16H10.1669C10.37 9.16 10.5718 9.12685 10.7642 9.06184V9.06184C11.0403 8.96858 11.2908 8.81196 11.4955 8.60452L18.2894 1.72M1.71045 12.28H18.2894M1.71045 12.28L6.92098 7M18.2894 12.28V1.72M18.2894 12.28L13.0789 7" stroke="black"/>
<rect x="1" y="1" width="18" height="12" rx="1.5" stroke="white"/>
</svg>
