<svg width="30" height="30" viewBox="0 0 30 30" fill="none" xmlns="http://www.w3.org/2000/svg">
<path d="M9.94928 22.0711L15 17.0203L20.0508 22.0711C20.3187 22.339 20.6821 22.4895 21.061 22.4895C21.4398 22.4895 21.8032 22.339 22.0711 22.0711C22.339 21.8032 22.4895 21.4398 22.4895 21.0609C22.4895 20.682 22.339 20.3187 22.0711 20.0508L17.0204 15L22.0711 9.94924C22.339 9.68133 22.4895 9.31796 22.4895 8.93908C22.4895 8.5602 22.339 8.19684 22.0711 7.92893C21.8032 7.66102 21.4398 7.51051 21.061 7.51051C20.6821 7.51051 20.3187 7.66102 20.0508 7.92893L15 12.9797L9.94928 7.92893C9.68137 7.66102 9.31801 7.51051 8.93913 7.51051C8.56025 7.51051 8.19689 7.66102 7.92898 7.92893C7.66107 8.19684 7.51056 8.5602 7.51056 8.93908C7.51056 9.31797 7.66107 9.68133 7.92898 9.94924L12.9797 15L7.92898 20.0508C7.66107 20.3187 7.51056 20.682 7.51056 21.0609C7.51056 21.4398 7.66107 21.8032 7.92898 22.0711C8.19689 22.339 8.56025 22.4895 8.93913 22.4895C9.31801 22.4895 9.68137 22.339 9.94928 22.0711Z" fill="#414142"/>
</svg>
